<svg width="143" height="28" viewBox="0 0 143 28" fill="none" xmlns="http://www.w3.org/2000/svg">
<path d="M0.46875 28L3.125 0.5H12.4531L15.0625 28H9.85938L9.46875 23.5625H6.15625L5.8125 28H0.46875ZM6.54688 19.1719H9.04688L7.84375 5.1875H7.59375L6.54688 19.1719ZM16.75 28V0.5H25.1875C26.5938 0.5 27.6562 0.822917 28.375 1.46875C29.0938 2.10417 29.5729 3 29.8125 4.15625C30.0625 5.30208 30.1875 6.65104 30.1875 8.20312C30.1875 9.70312 29.9948 10.901 29.6094 11.7969C29.2344 12.6927 28.5208 13.3125 27.4688 13.6562C28.3333 13.8333 28.9375 14.2656 29.2812 14.9531C29.6354 15.6302 29.8125 16.5104 29.8125 17.5938V28H24.3906V17.2344C24.3906 16.4323 24.224 15.9375 23.8906 15.75C23.5677 15.5521 23.0417 15.4531 22.3125 15.4531V28H16.75ZM22.3438 10.6875H23.6719C24.4323 10.6875 24.8125 9.85938 24.8125 8.20312C24.8125 7.13021 24.7292 6.42708 24.5625 6.09375C24.3958 5.76042 24.0833 5.59375 23.625 5.59375H22.3438V10.6875ZM34.3594 28V5.78125H31.0938V0.5H43.125V5.78125H39.8594V28H34.3594ZM45.1719 8.5625L46.2031 4.875H44.2188V0.21875H50.0625V4.73438L48.4688 8.5625H45.1719ZM54.625 28L51.2344 0.484375H56.4688L58.4844 19.2031L60.2812 0.484375H65.5156L62.125 28H54.625ZM65.7188 28L68.375 0.5H77.7031L80.3125 28H75.1094L74.7188 23.5625H71.4062L71.0625 28H65.7188ZM71.7969 19.1719H74.2969L73.0938 5.1875H72.8438L71.7969 19.1719ZM82 28V0.5H87.6562L90.1875 13.6719V0.5H95.5V28H90.125L87.375 14.25V28H82ZM97.9375 28V0.5H103.594L106.125 13.6719V0.5H111.438V28H106.062L103.312 14.25V28H97.9375ZM113.125 28L115.781 0.5H125.109L127.719 28H122.516L122.125 23.5625H118.812L118.469 28H113.125ZM119.203 19.1719H121.703L120.5 5.1875H120.25L119.203 19.1719ZM129.406 28V0.5H134.875V10.3281H137.469V0.5H142.938V28H137.469V15.5312H134.875V28H129.406Z" fill="#FFFFFE"/>
</svg>
